<svg width="513" height="630" viewBox="0 0 513 630" fill="none" xmlns="http://www.w3.org/2000/svg">
<mask id="mask0" mask-type="alpha" maskUnits="userSpaceOnUse" x="0" y="0" width="513" height="630">
<rect width="513" height="630" fill="#C4C4C4"/>
</mask>
<g mask="url(#mask0)">
<rect x="163.597" y="112.36" width="51.2542" height="426.522" transform="rotate(45 163.597 112.36)" fill="#3445A4"/>
<path d="M272.64 149V77L199.64 149H272.64Z" fill="#3445A4"/>
<path d="M199.64 149V77L126.64 149H199.64Z" fill="#4B5FCB"/>
<path d="M272.64 77V5L199.64 77H272.64Z" fill="#4B5FCB"/>
<path d="M199.64 77V5L126.64 77H199.64Z" fill="#3445A4"/>
<rect x="376.1" y="83" width="69.4673" height="602.596" transform="rotate(45 376.1 83)" fill="#4B5FCB"/>
<rect x="376.503" y="83" width="49" height="49" fill="#3445A4"/>
<rect x="-4.90024" y="75.5627" width="104.027" height="602.596" transform="rotate(45 -4.90024 75.5627)" fill="#4B5FCB"/>
<circle cx="37.4372" cy="105" r="54" fill="#3445A4"/>
<rect x="334.324" y="334" width="154.255" height="426.522" transform="rotate(45 334.324 334)" fill="#3445A4"/>
<circle cx="406" cy="371" r="81" fill="#4B5FCB"/>
</g>
</svg>
